<?xml version="1.0" encoding="UTF-8"?>
<svg id="Layer_1" data-name="Layer 1" xmlns="http://www.w3.org/2000/svg" xmlns:xlink="http://www.w3.org/1999/xlink" version="1.1" viewBox="0 0 1026 1026">
  <defs>
    <style>
      .cls-1 {
        clip-path: url(#clippath);
      }

      .cls-2 {
        fill: none;
      }

      .cls-2, .cls-3, .cls-4, .cls-5, .cls-6, .cls-7, .cls-8 {
        stroke-width: 0px;
      }

      .cls-9 {
        clip-path: url(#clippath-1);
      }

      .cls-3 {
        fill: url(#radial-gradient-2);
      }

      .cls-3, .cls-4, .cls-10, .cls-8, .cls-11 {
        display: none;
      }

      .cls-4 {
        fill: url(#radial-gradient-3);
      }

      .cls-5 {
        fill: url(#radial-gradient-4);
      }

      .cls-6 {
        fill: url(#radial-gradient-6);
      }

      .cls-7 {
        fill: url(#radial-gradient-5);
      }

      .cls-10 {
        fill: #fff;
        stroke: #000;
        stroke-miterlimit: 10;
      }

      .cls-8 {
        fill: url(#radial-gradient);
      }
    </style>
    <radialGradient id="radial-gradient" cx="531" cy="136.6" fx="531" fy="136.6" r="496.5" gradientTransform="translate(-18 376.4)" gradientUnits="userSpaceOnUse">
      <stop offset=".9" stop-color="#000"/>
      <stop offset="1" stop-color="#000" stop-opacity="0"/>
    </radialGradient>
    <radialGradient id="radial-gradient-2" cx="528.6" cy="132.2" fx="528.6" fy="132.2" r="486.3" gradientTransform="translate(-18 376.4)" gradientUnits="userSpaceOnUse">
      <stop offset="1" stop-color="#fff"/>
      <stop offset="1" stop-color="#fdfdfd"/>
      <stop offset="1" stop-color="#f6f6f6"/>
      <stop offset="1" stop-color="#ebebeb"/>
      <stop offset="1" stop-color="#dadada"/>
      <stop offset="1" stop-color="#c7c7c7"/>
    </radialGradient>
    <radialGradient id="radial-gradient-3" cx="528.6" cy="132.2" fx="528.6" fy="132.2" r="444.1" gradientTransform="translate(-18 376.4)" gradientUnits="userSpaceOnUse">
      <stop offset="1" stop-color="#000" stop-opacity=".5"/>
      <stop offset="1" stop-color="#000" stop-opacity="0"/>
    </radialGradient>
    <clipPath id="clippath">
      <path class="cls-2" d="M66.5,508.6c0,245.3,198.8,444.1,444.1,444.1s444.1-198.8,444.1-444.1S755.9,64.5,510.6,64.5,66.5,263.3,66.5,508.6"/>
    </clipPath>
    <radialGradient id="radial-gradient-4" cx="510.6" cy="112.2" fx="510.6" fy="112.2" gradientTransform="translate(0 396.4)" xlink:href="#radial-gradient-3"/>
    <clipPath id="clippath-1">
      <path class="cls-2" d="M70.1,508.6c0,243.3,197.2,440.5,440.5,440.5s440.5-197.2,440.5-440.5S753.9,68.1,510.6,68.1,70.1,265.3,70.1,508.6"/>
    </clipPath>
    <radialGradient id="radial-gradient-5" cx="700.8" cy="894" fx="700.8" fy="894" r="4.7" gradientTransform="translate(-65842.7 85166.4) scale(94.7 -94.7)" gradientUnits="userSpaceOnUse">
      <stop offset="0" stop-color="#000"/>
      <stop offset="1" stop-color="#322f32"/>
    </radialGradient>
    <radialGradient id="radial-gradient-6" cx="595.4" cy="115.2" fx="595.4" fy="115.2" r="353.9" gradientTransform="translate(-18 341.2) scale(1 1.1)" gradientUnits="userSpaceOnUse">
      <stop offset="0" stop-color="#c2c0c2"/>
      <stop offset="1" stop-color="#ebebeb"/>
    </radialGradient>
  </defs>
  <rect class="cls-10" x=".5" y=".5" width="1025" height="1025"/>
  <g>
    <path class="cls-8" d="M513,16.5c274.2,0,496.5,222.3,496.5,496.5s-222.3,496.5-496.5,496.5S16.5,787.2,16.5,513,238.8,16.5,513,16.5" shape-rendering="geometricPrecision"/>
    <path class="cls-3" d="M510.6,22.3c268.6,0,486.3,217.7,486.3,486.3s-217.7,486.3-486.3,486.3S24.3,777.2,24.3,508.6,242,22.3,510.6,22.3" shape-rendering="geometricPrecision"/>
    <path id="SVGID-2" class="cls-4" d="M66.5,508.6c0,245.3,198.8,444.1,444.1,444.1s444.1-198.8,444.1-444.1S755.9,64.5,510.6,64.5,66.5,263.3,66.5,508.6" shape-rendering="geometricPrecision"/>
    <g class="cls-11">
      <g class="cls-1">
        <rect class="cls-5" x="66.5" y="64.5" width="888.2" height="888.2" shape-rendering="geometricPrecision"/>
      </g>
    </g>
    <g class="cls-11">
      <g class="cls-9">
        <rect class="cls-7" x="70.1" y="68.2" width="880.9" height="880.9" shape-rendering="geometricPrecision"/>
      </g>
    </g>
    <path class="cls-6" d="M683.4,367c-54.8,95.4-176.6,128.4-272,73.6-1.8-1-3.5-2.1-5.2-3.1-16.7-10.3-31.9-23.1-44.9-37.8-34.4-38.8-52.3-89.4-49.9-141.1.3-5.8.8-11.6,1.5-17.3.7-5.7,1.7-11.3,3-16.9,1.3-5.7,2.8-11.4,4.5-17,1.7-5.4,3.7-10.8,5.9-16.1,2.3-5.5,4.8-10.9,7.5-16.1,2.9-5.5,6.1-10.9,9.5-16.2,3.1-4.8,6.5-9.5,10-14.1,3.9-5,8-9.7,12.3-14.3,4.4-4.6,8.9-9,13.7-13.2,4.8-4.3,9.9-8.2,15.1-12,2.7-1.9,5.4-3.8,8.2-5.6-118.1,60.4-166.5,203.9-109.1,323.5.5,1.1,1.1,2.3,1.7,3.4.3.5.5,1,.8,1.5.1.3.3.6.5.9.3.4.4.3.9.3h7.7c4.8,0,9.5.4,14.3.8,90.3,8.5,163.5,76.9,178.2,166.4,3.2,19.9,3.4,40.2.6,60.2-5.3,37.7-21.3,73-46.2,101.9-14.2,16.5-31,30.6-49.8,41.8-37.4,22.1-81,31.4-124.2,26.5-7.8-.9-15.6-2.2-23.2-4-5-1.2-9.9-2.5-14.7-4.1,21.8,9.7,44.9,16.1,68.5,19,22.1,2.7,44.4,2.5,66.4-.8,39.3-5.9,76.7-21.3,108.7-44.9,23.5-17.3,43.7-38.7,59.7-63.1.7-1.1,1.4-2.1,2.1-3.2.3-.4.9-1.1.8-1.5-.3-.7-.6-1.3-1.1-1.9-1.3-2.5-2.6-5-3.8-7.6-2.5-5.1-4.7-10.4-6.7-15.7-4.1-10.8-7.2-22-9.3-33.4-4.6-24.5-4.6-49.5,0-74,3.9-20.8,11.1-40.8,21.4-59.3,34.8-63.2,101-102.6,173.1-103.1,4.9,0,9.8,0,14.7.4,4.7.3,9.4.8,14.1,1.4,4.6.6,9.2,1.4,13.8,2.4,4.5.9,8.9,2,13.4,3.3,4.3,1.2,8.6,2.6,12.8,4.1,4.3,1.5,8.5,3.2,12.7,5.1,4.3,1.9,8.4,3.9,12.6,6,4.1,2.2,8.1,4.5,12.1,6.9,3.7,2.3,7.4,4.7,10.9,7.3,3.7,2.6,7.2,5.4,10.7,8.2,3.6,2.9,7.1,6,10.5,9.2,3.6,3.4,7.1,6.9,10.4,10.6,3.3,3.6,6.5,7.4,9.6,11.3,3.4,4.3,6.6,8.8,9.7,13.4,3.1,4.7,6,9.6,8.7,14.5,3.8,6.9,7.1,14.1,10.1,21.4,3.2,8,5.8,16.1,8,24.4-5.8-44.3-23.7-86.1-51.7-120.9-20.6-25.6-46.1-46.9-75-62.5-29.7-16-62.3-25.6-95.9-28.3-2.8-.2-5.7-.4-8.5-.5h-.2Z" shape-rendering="geometricPrecision"/>
  </g>
</svg>